<svg xmlns="http://www.w3.org/2000/svg" fill="none" viewBox="0 0 104 106"><path fill="#97A6BA" d="M37.9 77.288c-20.89 0-37.892-17.33-37.9-38.64 0-10.27 3.922-19.953 11.05-27.274C18.22 4.044 27.752 0 37.893 0c10.149 0 19.665 4.02 26.834 11.325 7.17 7.305 11.115 17.003 11.115 27.315 0 10.27-3.921 19.953-11.05 27.258-7.186 7.345-16.726 11.398-26.867 11.398l-.024-1.634.024-1.634c9.264 0 17.984-3.702 24.553-10.418 6.528-6.684 10.117-15.55 10.117-24.962 0-9.446-3.614-18.327-10.174-25.02-6.56-6.683-15.256-10.36-24.488-10.36-9.304 0-18.008 3.694-24.56 10.402-6.537 6.7-10.125 15.573-10.125 24.978.008 19.504 15.556 35.363 34.653 35.363v3.277z"/><path fill="#97A6BA" d="M37.9 68.17c-7.729 0-15.004-3.081-20.476-8.662-5.472-5.58-8.485-12.992-8.485-20.86 0-7.852 3.005-15.255 8.453-20.828 5.48-5.613 12.763-8.71 20.517-8.71s15.029 3.08 20.501 8.67c5.473 5.572 8.493 12.983 8.493 20.86.008 7.852-2.996 15.246-8.444 20.819-5.489 5.621-12.78 8.71-20.534 8.71h-.024zm.025-55.8c-6.893 0-13.356 2.754-18.22 7.73-4.847 4.96-7.518 11.546-7.518 18.54 0 7.002 2.68 13.596 7.543 18.564 4.863 4.96 11.31 7.689 18.17 7.689v1.634l.025-1.634c6.877 0 13.357-2.746 18.22-7.738 4.855-4.96 7.518-11.537 7.518-18.532-.008-7.002-2.687-13.596-7.559-18.555-4.863-4.96-11.318-7.697-18.179-7.697z"/><path fill="#97A6BA" d="M22.328 38.64H19.08c0-5.107 1.949-9.911 5.489-13.54 3.564-3.652 8.306-5.662 13.348-5.662v3.269c-4.165 0-8.079 1.666-11.034 4.69-2.94 3.007-4.555 7.002-4.555 11.243zM93.347 106c-1.404 0-2.792-.286-4.14-.858l-.3-.122-25.48-25.992 14.104-14.38 25.511 26.015.122.303c1.396 3.44 1.031 7.166-.999 10.213-2.022 3.023-5.318 4.821-8.818 4.821zm-2.59-3.75c3.224 1.217 6.796-.017 8.712-2.893 1.364-2.043 1.649-4.526.804-6.863l-22.734-23.19L68 79.029l22.758 23.222z"/><path fill="#97A6BA" d="M81.732 74.041l-9.123 9.309 2.313 2.294 9.122-9.308-2.312-2.295zM65.473 64.416l-2.312 2.295 6.438 6.567 2.312-2.295-6.438-6.567z"/></svg>
