<svg xmlns="http://www.w3.org/2000/svg" fill="none" viewBox="0 0 105 102"><path fill="#97A6BA" d="M66.763 14.335L54.732 4.117c-1.48-1.252-3.976-1.252-5.456 0l-11.335 9.621-2.072-2.433 11.335-9.62c2.648-2.25 6.952-2.242 9.6 0l12.039 10.218-2.08 2.434zM102.384 102H1.608c-.88 0-1.6-.718-1.6-1.595V42.64a1.538 1.538 0 01.232-.974c.128-.215.304-.398.512-.534l10.223-8.68 2.072 2.434-9.84 8.344v55.579h97.585V43.222l-9.983-8.48 2.072-2.425 10.431 8.855c.288.2.504.494.616.837.072.216.096.44.072.663v57.74a1.62 1.62 0 01-1.616 1.588z"/><path fill="#97A6BA" d="M93.105 45.575h-3.2V14.702H13.591v30.873h-3.2V11.511h82.714v34.064z"/><path fill="#97A6BA" d="M61.475 42.416H18.902v3.191h42.573v-3.19zM61.475 52.93H18.902v3.192h42.573V52.93zM61.475 63.445H27.67v3.19h33.805v-3.19zM83.921 42.416H67.147v3.191H83.92v-3.19zM78.194 52.93H67.147v3.192h11.047V52.93zM58.723 23.853v8.185H22.19v-8.185h36.533zm3.2-3.191H18.99v14.567h42.933V20.662zM80.642 23.853v8.185H70.346v-8.185h10.296zm3.2-3.191H67.146v14.567H83.84V20.662z"/><path fill="#97A6BA" d="M68.115 74.254h-32.23c-.368 0-.728-.127-1.016-.359L.464 45.791l2.032-2.465L36.46 71.063h31.094l34.101-27.745 2.024 2.473-34.55 28.104a1.627 1.627 0 01-1.015.36z"/><path fill="#97A6BA" d="M5.631 100.835L3.56 98.402l11.215-9.509 8.455-7.236c1-.845 2.296-1.962 3.6-3.087l8.383-7.172 2.088 2.426-8.375 7.171a3126.523 3126.523 0 01-3.608 3.088l-8.456 7.243-11.23 9.509zM68.797 71.405l-2.084 2.422 32.509 27.819 2.084-2.422-32.51-27.819z"/></svg>
